# xmcd
#
# Track frame offsets:
#	188
#	20088
#	35713
#	50208
#	63813
#	78675
#	93150
#	112888
#	126225
#	137350
#	155525
#	167988
#
# Disc length: 2410 seconds
#
# Revision: 1
# Processed by: cddbd v1.5.1PL2 Copyright (c) Steve Scherf et al.
# Submitted via: audiograbber 1.83.01
#
DISCID=a109680c
DTITLE=Fesaci - ... a jedeme dal
DYEAR=1992
DGENRE=Country
TTITLE0=Amerika
TTITLE1=Zase jsem ta druha
TTITLE2=Radio
TTITLE3=Heart
TTITLE4=Amazing grace
TTITLE5=Par vuni
TTITLE6=Navrat
TTITLE7=Stripek
TTITLE8=Cirkusak Braun
TTITLE9=Nas vuz
TTITLE10=Jolene
TTITLE11=25 let
EXTD=
EXTT0=
EXTT1=
EXTT2=
EXTT3=
EXTT4=
EXTT5=
EXTT6=
EXTT7=
EXTT8=
EXTT9=
EXTT10=
EXTT11=
PLAYORDER=
